HIERARCHY
ROOT Hips
{
	OFFSET 0.000000 0.000000 0.000000 
	CHANNELS 6 Xposition Yposition Zposition Yrotation Zrotation Xrotation 
	JOINT Lumbar
	{
		OFFSET 0.000000 0.000000 0.000000 
		CHANNELS 3 Zrotation Xrotation Yrotation
		JOINT Neck
		{
			OFFSET 0.000000 0.445665 0.000000 
			CHANNELS 3 Zrotation Xrotation Yrotation
			End Site
			{
				OFFSET 0.000000 0.227535 0.000000 
			}
		}
		JOINT RightShoulder
		{
			OFFSET 0.019635 0.377685 0.194865 
			CHANNELS 3 Zrotation Xrotation Yrotation
			JOINT RightElbow
			{
				OFFSET 0.000000 -0.243375 0.000000 
				CHANNELS 2 Zrotation Yrotation
				JOINT RightWrist
				{
					OFFSET 0.000000 -0.264825 0.000000 
					CHANNELS 2 Zrotation Xrotation
					End Site
					{
						OFFSET 0.006600 -0.176220 0.000990 
					}
				}
			}
		}
		JOINT LeftShoulder
		{
			OFFSET 0.019635 0.377685 -0.194865 
			CHANNELS 3 Zrotation Xrotation Yrotation
			JOINT LeftElbow
			{
				OFFSET 0.000000 -0.243375 0.000000 
				CHANNELS 2 Zrotation Yrotation
				JOINT LeftWrist
				{
					OFFSET 0.000000 -0.264825 0.000000 
					CHANNELS 2 Zrotation Xrotation
					End Site
					{
						OFFSET 0.006600 -0.176220 -0.000990 
					}
				}
			}
		}
	}
	JOINT RightHip
	{
		OFFSET 0.052140 -0.069960 0.075570 
		CHANNELS 3 Zrotation Xrotation Yrotation
		JOINT RightKnee
		{
			OFFSET 0.000000 -0.402270 0.000000 
			CHANNELS 1 Zrotation
			JOINT RightAnkle
			{
				OFFSET 0.000000 -0.404085 0.000000 
				CHANNELS 3 Zrotation Xrotation Yrotation
				End Site
				{
					OFFSET 0.204105 -0.089430 0.008415 
				}
			}
		}
	}
	JOINT LeftHip
	{
		OFFSET 0.052140 -0.069960 -0.075570 
		CHANNELS 3 Zrotation Xrotation Yrotation
		JOINT LeftKnee
		{
			OFFSET 0.000000 -0.402270 0.000000 
			CHANNELS 1 Zrotation
			JOINT LeftAnkle
			{
				OFFSET 0.000000 -0.404085 0.000000 
				CHANNELS 3 Zrotation Xrotation Yrotation
				End Site
				{
					OFFSET 0.204105 -0.089430 -0.008415 
				}
			}
		}
	}
}
MOTION
Frames: 32
Frame Time: 0.02
0 0.95578 0 175.7897 0 3.6161 7.17384 -1.89728 -0.48595 -34.28254 3.62108 4.26819 24.069 -15.7299 -5.87096 9.35346 82.23548 0.45428 1.83968 26.34184 3.29303 12.89767 5.82799 -76.55517 -5.32318 0.11782 5.24548 0.01181 5.52863 -22.34811 10.2293 -9.15937 -15.73956 4.71602 -2.47368 -6.62675 -18.15744 6.0612 7.02332 13.46033
-2e-05 0.95576 -0.00011 175.81784 0 3.61138 7.16833 -1.90238 -0.49568 -34.30833 3.64055 4.27412 24.11691 -15.74835 -5.79587 9.36854 82.22963 0.46398 1.86856 26.37305 3.29352 12.87557 5.82806 -76.54965 -5.32454 0.12971 5.24341 0.01646 5.48443 -22.35184 10.23697 -9.1624 -15.72385 4.73864 -2.46691 -6.65071 -18.19697 6.07277 7.02865 13.45233
-3e-05 0.95574 -0.00021 175.84576 0 3.60672 7.16278 -1.9075 -0.50526 -34.33435 3.66005 4.28013 24.16494 -15.76687 -5.72078 9.38348 82.22389 0.4736 1.89717 26.40448 3.29389 12.85361 5.82811 -76.54258 -5.32593 0.14166 5.24149 0.02112 5.44064 -22.35586 10.24469 -9.1655 -15.70831 4.76117 -2.46018 -6.67447 -18.23642 6.08436 7.03401 13.44435
-5e-05 0.95572 -0.00032 175.87295 0 3.60217 7.1571 -1.9126 -0.51432 -34.36106 3.67968 4.2864 24.2135 -15.78561 -5.64533 9.39809 82.21849 0.48294 1.92485 26.43666 3.2939 12.83201 5.82817 -76.52818 -5.32754 0.15393 5.23985 0.02591 5.39813 -22.36039 10.25249 -9.16865 -15.69332 4.78354 -2.45348 -6.69764 -18.27587 6.09604 7.03942 13.43648
-6e-05 0.95569 -0.00042 175.90384 0 3.59694 7.1522 -1.91765 -0.52608 -34.38356 3.69844 4.29114 24.25872 -15.80288 -5.57224 9.41456 82.21124 0.49368 1.95729 26.46435 3.29598 12.80849 5.82831 -76.55135 -5.32809 0.16445 5.2364 0.03007 5.34895 -22.36139 10.2596 -9.17123 -15.67543 4.80673 -2.44653 -6.7239 -18.3152 6.10713 7.04445 13.42815
-8e-05 0.95567 -0.00053 175.92697 0 3.59323 7.14558 -1.92291 -0.53214 -34.41531 3.71916 4.29923 24.31132 -15.82347 -5.49393 9.42701 82.20794 0.50151 1.97972 26.50187 3.29358 12.78907 5.8282 -76.49591 -5.33079 0.1787 5.23701 0.03552 5.31387 -22.37041 10.26834 -9.1752 -15.66371 4.8282 -2.44018 -6.74363 -18.35484 6.11952 7.05034 13.42071
-0.00012 0.95564 -0.00066 175.92776 0 3.59319 7.13451 -1.92811 -0.522 -34.47118 3.74489 4.31618 24.38346 -15.85209 -5.40101 9.4288 82.21565 0.50061 1.97344 26.5654 3.27932 12.78083 5.82794 -76.20608 -5.34061 0.20359 5.24745 0.04509 5.31861 -22.39808 10.28043 -9.18177 -15.66907 4.8452 -2.435 -6.74495 -18.39583 6.13538 7.05857 13.41651
-0.00016 0.9556 -0.00079 175.92089 0 3.59479 7.1216 -1.93365 -0.50619 -34.53666 3.77269 4.3366 24.46324 -15.88431 -5.30279 9.42643 82.22735 0.49686 1.95725 26.63908 3.2605 12.77681 5.82733 -75.83965 -5.35239 0.23224 5.26228 0.05588 5.33743 -22.43453 10.29438 -9.18997 -15.68065 4.86048 -2.43052 -6.73975 -18.43715 6.15262 7.06771 13.41302
-0.0002 0.95557 -0.00092 175.91809 0 3.596 7.10938 -1.93947 -0.49324 -34.59882 3.79986 4.35575 24.54024 -15.91563 -5.207 9.4257 82.23719 0.49486 1.94633 26.70901 3.24336 12.77081 5.82653 -75.51924 -5.36251 0.25894 5.27603 0.06576 5.34926 -22.46926 10.3082 -9.19827 -15.68933 4.87636 -2.42605 -6.7378 -18.47796 6.1693 7.07647 13.4087
-0.00024 0.95554 -0.00106 175.91272 0 3.59572 7.09792 -1.94349 -0.47902 -34.65681 3.82581 4.37365 24.61451 -15.94378 -5.11105 9.42607 82.24721 0.491 1.93222 26.77551 3.22762 12.76475 5.82722 -75.1519 -5.37586 0.28653 5.28591 0.07712 5.36359 -22.49439 10.31899 -9.20308 -15.6983 4.89285 -2.42023 -6.73468 -18.52004 6.18558 7.08506 13.40665
-0.00029 0.9555 -0.00119 175.91098 0 3.5989 7.08425 -1.95131 -0.46621 -34.72542 3.8547 4.39492 24.69604 -15.97947 -5.01425 9.4231 82.2578 0.49026 1.92236 26.8513 3.20818 12.76023 5.8247 -74.86369 -5.38294 0.3133 5.30489 0.08573 5.37605 -22.54159 10.33655 -9.21545 -15.70819 4.90785 -2.41733 -6.73237 -18.55987 6.20315 7.09426 13.3999
-0.00039 0.95544 -0.00132 175.92057 0 3.61166 7.06609 -1.96994 -0.45797 -34.82324 3.89183 4.42498 24.79724 -16.03447 -4.91589 9.41241 82.26895 0.49943 1.9269 26.95184 3.17726 12.7554 5.81377 -74.81645 -5.37249 0.33564 5.34831 0.08595 5.37976 -22.64795 10.37207 -9.24925 -15.71868 4.91777 -2.42276 -6.7347 -18.59076 6.22298 7.10456 13.38093
-0.0005 0.95538 -0.00145 175.93434 0 3.62777 7.04522 -1.99237 -0.45168 -34.9304 3.93175 4.45821 24.90479 -16.09705 -4.81716 9.39844 82.28053 0.51171 1.936 27.06062 3.14332 12.75258 5.79962 -74.85087 -5.35566 0.35719 5.40084 0.08346 5.38098 -22.77633 10.41442 -9.29044 -15.72999 4.92667 -2.43102 -6.73794 -18.61999 6.24427 7.11549 13.35691
-0.00061 0.95531 -0.00158 175.94634 0 3.64202 7.02521 -2.01269 -0.44471 -35.03264 3.96994 4.48981 25.00896 -16.15657 -4.71865 9.38557 82.29198 0.52218 1.94287 27.16517 3.1122 12.75128 5.78659 -74.8454 -5.34151 0.38001 5.44876 0.08254 5.38361 -22.89415 10.4538 -9.3276 -15.74118 4.93671 -2.4377 -6.74022 -18.65157 6.26555 7.12637 13.33474
-0.00072 0.95526 -0.00171 175.95681 0 3.65768 7.008 -2.03435 -0.43586 -35.1406 4.01003 4.52247 25.11718 -16.21458 -4.61886 9.37402 82.30336 0.53425 1.9501 27.27401 3.07436 12.74015 5.77467 -74.84871 -5.32816 0.39937 5.49818 0.08022 5.38613 -23.01385 10.49258 -9.36759 -15.75142 4.94314 -2.44565 -6.74452 -18.67592 6.28407 7.13633 13.31493
-0.00083 0.95518 -0.00183 175.97244 0 3.67127 6.98271 -2.05451 -0.43247 -35.23553 4.04695 4.55343 25.21624 -16.27751 -4.52278 9.35925 82.31486 0.54373 1.95777 27.3734 3.05043 12.74953 5.76009 -74.85449 -5.31183 0.42537 5.54737 0.08016 5.38735 -23.13568 10.53434 -9.40349 -15.76389 4.95773 -2.45161 -6.74499 -18.71555 6.30873 7.14829 13.2884
-0.00101 0.95508 -0.00195 175.99424 0 3.67761 6.94876 -2.06627 -0.43503 -35.31823 4.07326 4.58049 25.30556 -16.35178 -4.42738 9.33459 82.32726 0.54549 1.96572 27.46383 3.06108 12.81686 5.73562 -74.8442 -5.28689 0.47288 5.58792 0.0871 5.39186 -23.25095 10.58158 -9.42555 -15.78124 4.98865 -2.45142 -6.73394 -18.79385 6.34967 7.16622 13.24946
-0.00118 0.95497 -0.00207 176.02264 0 3.68185 6.90365 -2.07702 -0.44456 -35.38159 4.09655 4.60524 25.38153 -16.43074 -4.33717 9.30736 82.33964 0.54449 1.97387 27.54028 3.08691 12.90336 5.70938 -74.8345 -5.25957 0.52653 5.62955 0.09644 5.39379 -23.36962 10.63184 -9.44332 -15.80107 5.02969 -2.44911 -6.71923 -18.88918 6.3969 7.18604 13.20287
-0.00133 0.95485 -0.0022 176.05242 0 3.68756 6.85606 -2.09041 -0.45674 -35.43797 4.12194 4.63021 25.45318 -16.50781 -4.25139 9.28225 82.35154 0.5447 1.98199 27.61122 3.10853 12.9812 5.68593 -74.82685 -5.23452 0.57537 5.67377 0.10453 5.39284 -23.49035 10.6814 -9.46353 -15.82032 5.06952 -2.44774 -6.7066 -18.97822 6.4413 7.2046 13.15674
-0.00161 0.95476 -0.0023 176.06303 0 3.69135 6.8432 -2.0947 -0.44485 -35.5654 4.14416 4.6595 25.57166 -16.58429 -4.13846 9.25217 82.36542 0.54532 1.99042 27.73483 3.11785 13.06316 5.65333 -74.81226 -5.20401 0.63265 5.70304 0.11295 5.40937 -23.59353 10.7282 -9.48203 -15.83693 5.09231 -2.44658 -6.69195 -19.05758 6.48519 7.22486 13.12374
-0.0016 0.95461 -0.00246 176.11611 0 3.69843 6.75169 -2.11771 -0.48421 -35.53491 4.17248 4.6783 25.58591 -16.6628 -4.0814 9.23292 82.37526 0.54422 1.99767 27.7424 3.15751 13.13575 5.64024 -74.81114 -5.18464 0.67392 5.76642 0.12158 5.38837 -23.73768 10.78157 -9.50284 -15.86008 5.15638 -2.44445 -6.68099 -19.16559 6.53216 7.24202 13.06095
-0.00088 0.95435 -0.00279 176.2764 0 3.71645 6.47742 -2.19193 -0.66758 -35.11919 4.21568 4.67652 25.34655 -16.74731 -4.19346 9.23511 82.3731 0.54031 2.00636 27.45927 3.26835 13.22392 5.67426 -74.84745 -5.19489 0.66903 5.8995 0.1277 5.26858 -23.96062 10.85088 -9.53242 -15.89651 5.30333 -2.44002 -6.67785 -19.31089 6.58162 7.25021 12.92319
0.00018 0.95402 -0.00319 176.48093 0 3.7375 6.11862 -2.28504 -0.90131 -34.53769 4.26535 4.66279 24.99811 -16.83327 -4.35829 9.24996 82.36697 0.53443 2.01304 27.05606 3.41114 13.2939 5.72932 -74.89684 -5.21695 0.64812 6.07128 0.13443 5.11008 -24.23075 10.92701 -9.56431 -15.94015 5.49692 -2.4346 -6.67905 -19.49161 6.63495 7.25514 12.75442
0.00117 0.9537 -0.00357 176.67051 0 3.75635 5.77762 -2.37004 -1.10951 -34.00039 4.31415 4.64938 24.67787 -16.91767 -4.48872 9.26498 82.36326 0.52867 2.0174 26.68903 3.54482 13.34124 5.77952 -74.93958 -5.23461 0.63463 6.24127 0.14256 4.96694 -24.50121 11.00083 -9.59406 -15.98333 5.68785 -2.42987 -6.68051 -19.68064 6.68922 7.26163 12.59671
0.00178 0.95346 -0.00391 176.83788 0 3.77888 5.52275 -2.45336 -1.32994 -33.58926 4.3552 4.65743 24.4427 -17.0065 -4.66441 9.25496 82.35713 0.52636 2.03508 26.39432 3.65509 13.51752 5.80993 -74.98534 -5.2475 0.62 6.34491 0.1437 4.83429 -24.68014 11.0711 -9.62775 -16.01502 5.80053 -2.42452 -6.67282 -19.76667 6.73162 7.26814 12.45281
0.00325 0.95303 -0.00434 177.06278 0 3.79412 5.06916 -2.54425 -1.53572 -32.88204 4.41259 4.61805 24.01049 -17.08581 -4.75692 9.30009 82.35486 0.51611 2.02499 25.9267 3.82287 13.42345 5.88643 -75.02793 -5.27391 0.60482 6.59553 0.1595 4.66919 -25.06052 11.15075 -9.65447 -16.07193 6.08757 -2.41963 -6.68475 -20.07612 6.80047 7.27347 12.27127
0.00701 0.95211 -0.00497 177.42832 0 3.79176 4.08265 -2.65519 -1.69713 -31.34869 4.52509 4.44986 23.01178 -17.14332 -4.61874 9.49507 82.36633 0.48714 1.93458 24.95977 4.12983 12.56364 6.08628 -75.05821 -5.32862 0.58361 7.24617 0.21538 4.43566 -25.98945 11.25148 -9.65661 -16.19975 6.84104 -2.42152 -6.75442 -20.98815 6.93384 7.27891 12.00729
0.01161 0.95098 -0.00568 177.85152 0 3.78138 2.9003 -2.77249 -1.84018 -29.53318 4.65162 4.23442 21.82867 -17.19027 -4.39289 9.74505 82.3814 0.44975 1.81695 23.83322 4.49566 11.43697 6.33157 -75.08495 -5.39773 0.5639 8.04276 0.28583 4.16825 -27.11907 11.36215 -9.653 -16.35183 7.76899 -2.42296 -6.8429 -22.1249 7.0951 7.28262 11.70403
0.01581 0.94993 -0.00638 178.25319 0 3.77247 1.81048 -2.88432 -1.98641 -27.87807 4.76421 4.04123 20.76107 -17.23886 -4.19918 9.96941 82.39349 0.41443 1.71466 22.81258 4.8422 10.44758 6.55522 -75.11349 -5.46426 0.54909 8.77006 0.35003 3.90916 -28.15393 11.47012 -9.6546 -16.49119 8.61939 -2.42109 -6.91973 -23.16224 7.24846 7.28563 11.40955
0.02011 0.94896 -0.00699 178.63686 0 3.77271 0.70164 -3.00734 -2.15728 -26.07788 4.90914 3.84472 19.55204 -17.30084 -4.03932 10.19672 82.41126 0.38644 1.60025 21.64426 5.1584 9.38894 6.78372 -75.14148 -5.51436 0.51038 9.51095 0.4135 3.68015 -29.20423 11.57 -9.64348 -16.63918 9.46411 -2.43385 -7.00965 -24.18886 7.38167 7.29547 11.1519
0.02439 0.94777 -0.00779 179.0709 0 3.7521 -0.41152 -3.10877 -2.27042 -24.51938 4.98972 3.6436 18.59991 -17.33242 -3.78809 10.43095 82.41793 0.34121 1.50402 20.75046 5.55131 8.41275 7.0127 -75.16984 -5.60206 0.52174 10.25802 0.48091 3.37899 -30.27091 11.6898 -9.65974 -16.77335 10.36141 -2.41624 -7.07689 -25.29136 7.56361 7.2899 10.80909
0.02851 0.94608 -0.00905 179.63145 0 3.67447 -1.50068 -3.14527 -2.24057 -23.66097 4.89044 3.44547 18.36316 -17.28211 -3.30023 10.66946 82.39443 0.25037 1.46993 20.62649 6.14231 7.71807 7.231 -75.19791 -5.7894 0.67332 10.98375 0.56457 2.90444 -31.32114 11.85546 -9.73361 -16.87667 11.36191 -2.31307 -7.07478 -26.54318 7.87196 7.24896 10.23679
